<svg xmlns="http://www.w3.org/2000/svg" xmlns:xlink="http://www.w3.org/1999/xlink" width="490" zoomAndPan="magnify" viewBox="0 0 367.5 172.499995" height="230" preserveAspectRatio="xMidYMid meet" version="1.0"><defs><filter x="0%" y="0%" width="100%" height="100%" id="48c7c30067"><feColorMatrix values="0 0 0 0 1 0 0 0 0 1 0 0 0 0 1 0 0 0 1 0" color-interpolation-filters="sRGB"/></filter><g/><mask id="f916ddb60d"><g filter="url(#48c7c30067)"><rect x="-36.75" width="441" fill="#000000" y="-17.249999" height="206.999994" fill-opacity="0.349"/></g></mask><clipPath id="58c562c33a"><path d="M 88 143 L 102 143 L 102 147.632812 L 88 147.632812 Z M 88 143 " clip-rule="nonzero"/></clipPath><clipPath id="79b49bbd4a"><rect x="0" width="150" y="0" height="148"/></clipPath></defs><g fill="#000000" fill-opacity="1"><g transform="translate(95.537895, 148.321097)"><g><path d="M 7.761719 0.289062 C 11.554688 0.289062 13.652344 -1.953125 13.652344 -6.066406 L 13.652344 -19.832031 L 11.152344 -19.832031 L 11.152344 -5.804688 C 11.152344 -3.191406 9.886719 -1.867188 7.761719 -1.867188 C 5.632812 -1.867188 4.367188 -3.191406 4.367188 -5.804688 L 4.367188 -19.832031 L 1.867188 -19.832031 L 1.867188 -5.921875 C 1.867188 -1.898438 3.964844 0.289062 7.761719 0.289062 Z M 7.761719 0.289062 "/></g></g></g><g fill="#000000" fill-opacity="1"><g transform="translate(113.873645, 148.321097)"><g><path d="M 2.097656 0 L 4.570312 0 L 4.570312 -13.363281 L 4.453125 -17.761719 L 4.570312 -17.761719 L 8.796875 0 L 11.410156 0 L 15.605469 -17.761719 L 15.722656 -17.761719 L 15.605469 -13.335938 L 15.636719 0 L 18.105469 0 L 18.105469 -19.832031 L 13.941406 -19.832031 L 10.089844 -2.558594 L 6.238281 -19.832031 L 2.097656 -19.832031 Z M 2.097656 0 "/></g></g></g><g fill="#000000" fill-opacity="1"><g transform="translate(136.893716, 148.321097)"><g/></g></g><g fill="#000000" fill-opacity="1"><g transform="translate(145.142419, 148.321097)"><g><path d="M 2.097656 0 L 6.496094 0 C 11.726562 0 14.660156 -3.507812 14.660156 -9.773438 C 14.660156 -16.296875 11.8125 -19.832031 6.523438 -19.832031 L 2.097656 -19.832031 Z M 4.542969 -2.214844 L 4.542969 -17.648438 L 6.46875 -17.648438 C 10.316406 -17.648438 12.15625 -15.089844 12.15625 -9.914062 C 12.15625 -4.742188 10.203125 -2.214844 6.207031 -2.214844 Z M 4.542969 -2.214844 "/></g></g></g><g fill="#000000" fill-opacity="1"><g transform="translate(163.650606, 148.321097)"><g><path d="M 2.097656 0 L 4.570312 0 L 4.570312 -19.832031 L 2.097656 -19.832031 Z M 2.097656 0 "/></g></g></g><g fill="#000000" fill-opacity="1"><g transform="translate(173.106301, 148.321097)"><g><path d="M 2.097656 0 L 11.726562 0 L 11.726562 -2.214844 L 4.597656 -2.214844 L 4.597656 -8.824219 L 10.808594 -8.824219 L 10.808594 -11.035156 L 4.597656 -11.035156 L 4.597656 -17.617188 L 11.726562 -17.617188 L 11.726562 -19.832031 L 2.097656 -19.832031 Z M 2.097656 0 "/></g></g></g><g fill="#000000" fill-opacity="1"><g transform="translate(188.913114, 148.321097)"><g/></g></g><g fill="#000000" fill-opacity="1"><g transform="translate(197.161812, 148.321097)"><g><path d="M 18.507812 -19.832031 L 15.691406 -2.730469 L 15.519531 -2.730469 L 12.1875 -19.832031 L 9.226562 -19.832031 L 5.863281 -2.730469 L 5.71875 -2.730469 L 2.902344 -19.832031 L 0.316406 -19.832031 L 3.996094 0 L 7.414062 0 L 10.722656 -17.1875 L 13.996094 0 L 17.390625 0 L 21.097656 -19.832031 Z M 18.507812 -19.832031 "/></g></g></g><g fill="#000000" fill-opacity="1"><g transform="translate(221.388876, 148.321097)"><g><path d="M 2.097656 0 L 11.726562 0 L 11.726562 -2.214844 L 4.597656 -2.214844 L 4.597656 -8.824219 L 10.808594 -8.824219 L 10.808594 -11.035156 L 4.597656 -11.035156 L 4.597656 -17.617188 L 11.726562 -17.617188 L 11.726562 -19.832031 L 2.097656 -19.832031 Z M 2.097656 0 "/></g></g></g><g fill="#000000" fill-opacity="1"><g transform="translate(237.195689, 148.321097)"><g><path d="M 2.097656 0 L 11.09375 0 L 11.09375 -2.214844 L 4.597656 -2.214844 L 4.597656 -19.832031 L 2.097656 -19.832031 Z M 2.097656 0 "/></g></g></g><g fill="#000000" fill-opacity="1"><g transform="translate(251.450644, 148.321097)"><g><path d="M 4.886719 0 L 7.386719 0 L 7.386719 -17.648438 L 11.898438 -17.648438 L 11.898438 -19.832031 L 0.34375 -19.832031 L 0.34375 -17.648438 L 4.886719 -17.648438 Z M 4.886719 0 "/></g></g></g><g fill="#000000" fill-opacity="1"><g transform="translate(266.504328, 148.321097)"><g/></g></g><g fill="#000000" fill-opacity="1"><g transform="translate(54.456398, 81.42878)"><g><path d="M 30.25 -23.984375 C 30.25 -15.929688 28.691406 -9.53125 25.578125 -4.78125 C 22.472656 -0.03125 18.3125 2.34375 13.09375 2.34375 C 11.414062 2.34375 9.894531 2.054688 8.53125 1.484375 C 7.175781 0.910156 5.925781 0.0507812 4.78125 -1.09375 C 4.675781 -3.03125 4.582031 -5.265625 4.5 -7.796875 C 4.425781 -10.328125 4.390625 -15.644531 4.390625 -23.75 C 4.390625 -30.007812 4.519531 -36.179688 4.78125 -42.265625 C 5.039062 -48.359375 5.40625 -53.101562 5.875 -56.5 C 6.34375 -56.65625 6.800781 -56.757812 7.25 -56.8125 C 7.695312 -56.863281 8.234375 -56.890625 8.859375 -56.890625 C 9.066406 -56.890625 9.273438 -56.875 9.484375 -56.84375 C 9.691406 -56.820312 10.210938 -56.734375 11.046875 -56.578125 C 10.523438 -53.390625 10.066406 -49.863281 9.671875 -46 C 9.285156 -42.132812 8.960938 -38.082031 8.703125 -33.84375 C 10.054688 -35.988281 11.632812 -37.582031 13.4375 -38.625 C 15.238281 -39.675781 17.265625 -40.203125 19.515625 -40.203125 C 23.015625 -40.203125 25.675781 -38.816406 27.5 -36.046875 C 29.332031 -33.273438 30.25 -29.253906 30.25 -23.984375 Z M 8.3125 -2.984375 C 9.039062 -2.347656 9.796875 -1.882812 10.578125 -1.59375 C 11.359375 -1.3125 12.300781 -1.171875 13.40625 -1.171875 C 17.320312 -1.171875 20.335938 -3.171875 22.453125 -7.171875 C 24.566406 -11.171875 25.625 -16.75 25.625 -23.90625 C 25.625 -28.132812 24.984375 -31.316406 23.703125 -33.453125 C 22.421875 -35.597656 20.523438 -36.671875 18.015625 -36.671875 C 16.191406 -36.671875 14.390625 -35.742188 12.609375 -33.890625 C 10.835938 -32.035156 9.40625 -29.515625 8.3125 -26.328125 C 8.257812 -23.660156 8.21875 -21.859375 8.1875 -20.921875 C 8.164062 -19.984375 8.15625 -19.125 8.15625 -18.34375 C 8.15625 -14.050781 8.164062 -10.625 8.1875 -8.0625 C 8.21875 -5.507812 8.257812 -3.816406 8.3125 -2.984375 Z M 8.3125 -2.984375 "/></g></g></g><g fill="#000000" fill-opacity="1"><g transform="translate(87.9162, 81.42878)"><g><path d="M 9.328125 4.3125 C 8.960938 4.414062 8.347656 4.519531 7.484375 4.625 C 6.617188 4.726562 5.925781 4.78125 5.40625 4.78125 C 4.570312 -7.1875 4.128906 -17.910156 4.078125 -27.390625 C 4.023438 -36.867188 4.3125 -46.910156 4.9375 -57.515625 C 5.300781 -57.722656 5.71875 -57.878906 6.1875 -57.984375 C 6.65625 -58.085938 7.097656 -58.140625 7.515625 -58.140625 C 7.941406 -58.140625 8.347656 -58.113281 8.734375 -58.0625 C 9.128906 -58.007812 9.507812 -57.929688 9.875 -57.828125 C 8.988281 -49.265625 8.492188 -39.585938 8.390625 -28.796875 C 8.285156 -18.003906 8.597656 -6.96875 9.328125 4.3125 Z M 9.328125 4.3125 "/></g></g></g><g fill="#000000" fill-opacity="1"><g transform="translate(102.177758, 81.42878)"><g><path d="M 29.3125 -26.484375 C 29.3125 -22.984375 28.835938 -18.398438 27.890625 -12.734375 C 26.953125 -7.066406 25.832031 -1.929688 24.53125 2.671875 C 23.957031 2.671875 23.34375 2.601562 22.6875 2.46875 C 22.03125 2.332031 21.363281 2.132812 20.6875 1.875 C 20.894531 1.039062 21.140625 0 21.421875 -1.25 C 21.710938 -2.507812 21.882812 -3.21875 21.9375 -3.375 C 20.84375 -2.476562 19.585938 -1.796875 18.171875 -1.328125 C 16.765625 -0.859375 15.28125 -0.625 13.71875 -0.625 C 10.269531 -0.625 7.484375 -1.5625 5.359375 -3.4375 C 3.242188 -5.320312 2.1875 -7.78125 2.1875 -10.8125 C 2.1875 -14.15625 3.625 -16.703125 6.5 -18.453125 C 9.375 -20.203125 13.554688 -21.078125 19.046875 -21.078125 C 19.773438 -21.078125 20.515625 -21.0625 21.265625 -21.03125 C 22.023438 -21.007812 23.140625 -20.972656 24.609375 -20.921875 C 24.660156 -21.546875 24.6875 -22.238281 24.6875 -23 C 24.6875 -23.757812 24.6875 -25 24.6875 -26.71875 C 24.6875 -30.789062 24.132812 -33.726562 23.03125 -35.53125 C 21.9375 -37.332031 20.109375 -38.234375 17.546875 -38.234375 C 14.992188 -38.234375 12.84375 -37.132812 11.09375 -34.9375 C 9.34375 -32.75 8.414062 -29.984375 8.3125 -26.640625 C 7.15625 -26.898438 6.25 -27.195312 5.59375 -27.53125 C 4.945312 -27.875 4.414062 -28.335938 4 -28.921875 C 4.570312 -32.472656 6.226562 -35.5 8.96875 -38 C 11.71875 -40.507812 14.8125 -41.765625 18.25 -41.765625 C 21.914062 -41.765625 24.675781 -40.484375 26.53125 -37.921875 C 28.382812 -35.367188 29.3125 -31.554688 29.3125 -26.484375 Z M 6.734375 -10.8125 C 6.734375 -8.769531 7.410156 -7.132812 8.765625 -5.90625 C 10.128906 -4.6875 11.910156 -4.078125 14.109375 -4.078125 C 15.722656 -4.078125 17.273438 -4.320312 18.765625 -4.8125 C 20.253906 -5.3125 21.597656 -6.03125 22.796875 -6.96875 C 23.328125 -9.425781 23.707031 -11.503906 23.9375 -13.203125 C 24.175781 -14.898438 24.347656 -16.554688 24.453125 -18.171875 C 18.597656 -18.546875 14.179688 -18.117188 11.203125 -16.890625 C 8.222656 -15.660156 6.734375 -13.632812 6.734375 -10.8125 Z M 6.734375 -10.8125 "/></g></g></g><g fill="#000000" fill-opacity="1"><g transform="translate(136.264431, 81.42878)"><g><path d="M 13.875 0.78125 C 10.375 0.78125 7.722656 -1.082031 5.921875 -4.8125 C 4.117188 -8.550781 3.21875 -14.023438 3.21875 -21.234375 C 3.21875 -24.890625 3.503906 -28.503906 4.078125 -32.078125 C 4.648438 -35.660156 5.378906 -38.289062 6.265625 -39.96875 C 6.578125 -40.070312 6.898438 -40.160156 7.234375 -40.234375 C 7.578125 -40.316406 7.9375 -40.359375 8.3125 -40.359375 C 8.570312 -40.359375 8.84375 -40.316406 9.125 -40.234375 C 9.414062 -40.160156 9.691406 -40.070312 9.953125 -39.96875 C 9.117188 -37.457031 8.476562 -34.566406 8.03125 -31.296875 C 7.582031 -28.035156 7.359375 -24.421875 7.359375 -20.453125 C 7.359375 -15.328125 8 -11.09375 9.28125 -7.75 C 10.5625 -4.414062 12.300781 -2.75 14.5 -2.75 C 17.164062 -2.75 19.203125 -4.679688 20.609375 -8.546875 C 22.015625 -12.410156 22.71875 -17.921875 22.71875 -25.078125 C 22.71875 -27.160156 22.613281 -29.300781 22.40625 -31.5 C 22.195312 -33.695312 21.988281 -35.238281 21.78125 -36.125 C 22.351562 -36.382812 23.070312 -36.59375 23.9375 -36.75 C 24.800781 -36.90625 25.570312 -36.984375 26.25 -36.984375 C 26.507812 -35.835938 26.703125 -34.441406 26.828125 -32.796875 C 26.960938 -31.148438 27.03125 -29.488281 27.03125 -27.8125 C 27.03125 -18.570312 25.921875 -11.492188 23.703125 -6.578125 C 21.484375 -1.671875 18.207031 0.78125 13.875 0.78125 Z M 13.875 0.78125 "/></g></g></g><g fill="#000000" fill-opacity="1"><g transform="translate(166.511456, 81.42878)"><g><path d="M 29.3125 -26.484375 C 29.3125 -22.984375 28.835938 -18.398438 27.890625 -12.734375 C 26.953125 -7.066406 25.832031 -1.929688 24.53125 2.671875 C 23.957031 2.671875 23.34375 2.601562 22.6875 2.46875 C 22.03125 2.332031 21.363281 2.132812 20.6875 1.875 C 20.894531 1.039062 21.140625 0 21.421875 -1.25 C 21.710938 -2.507812 21.882812 -3.21875 21.9375 -3.375 C 20.84375 -2.476562 19.585938 -1.796875 18.171875 -1.328125 C 16.765625 -0.859375 15.28125 -0.625 13.71875 -0.625 C 10.269531 -0.625 7.484375 -1.5625 5.359375 -3.4375 C 3.242188 -5.320312 2.1875 -7.78125 2.1875 -10.8125 C 2.1875 -14.15625 3.625 -16.703125 6.5 -18.453125 C 9.375 -20.203125 13.554688 -21.078125 19.046875 -21.078125 C 19.773438 -21.078125 20.515625 -21.0625 21.265625 -21.03125 C 22.023438 -21.007812 23.140625 -20.972656 24.609375 -20.921875 C 24.660156 -21.546875 24.6875 -22.238281 24.6875 -23 C 24.6875 -23.757812 24.6875 -25 24.6875 -26.71875 C 24.6875 -30.789062 24.132812 -33.726562 23.03125 -35.53125 C 21.9375 -37.332031 20.109375 -38.234375 17.546875 -38.234375 C 14.992188 -38.234375 12.84375 -37.132812 11.09375 -34.9375 C 9.34375 -32.75 8.414062 -29.984375 8.3125 -26.640625 C 7.15625 -26.898438 6.25 -27.195312 5.59375 -27.53125 C 4.945312 -27.875 4.414062 -28.335938 4 -28.921875 C 4.570312 -32.472656 6.226562 -35.5 8.96875 -38 C 11.71875 -40.507812 14.8125 -41.765625 18.25 -41.765625 C 21.914062 -41.765625 24.675781 -40.484375 26.53125 -37.921875 C 28.382812 -35.367188 29.3125 -31.554688 29.3125 -26.484375 Z M 6.734375 -10.8125 C 6.734375 -8.769531 7.410156 -7.132812 8.765625 -5.90625 C 10.128906 -4.6875 11.910156 -4.078125 14.109375 -4.078125 C 15.722656 -4.078125 17.273438 -4.320312 18.765625 -4.8125 C 20.253906 -5.3125 21.597656 -6.03125 22.796875 -6.96875 C 23.328125 -9.425781 23.707031 -11.503906 23.9375 -13.203125 C 24.175781 -14.898438 24.347656 -16.554688 24.453125 -18.171875 C 18.597656 -18.546875 14.179688 -18.117188 11.203125 -16.890625 C 8.222656 -15.660156 6.734375 -13.632812 6.734375 -10.8125 Z M 17 -55 C 17.582031 -54.945312 18.066406 -54.867188 18.453125 -54.765625 C 18.847656 -54.660156 19.253906 -54.476562 19.671875 -54.21875 C 19.046875 -52.914062 18.484375 -51.519531 17.984375 -50.03125 C 17.484375 -48.539062 17.078125 -47.113281 16.765625 -45.75 C 16.398438 -45.695312 15.890625 -45.671875 15.234375 -45.671875 C 14.585938 -45.671875 13.953125 -45.695312 13.328125 -45.75 C 13.273438 -45.957031 13.25 -46.179688 13.25 -46.421875 C 13.25 -46.660156 13.25 -47.015625 13.25 -47.484375 C 13.25 -48.679688 13.378906 -49.957031 13.640625 -51.3125 C 13.898438 -52.675781 14.238281 -53.800781 14.65625 -54.6875 C 15.125 -54.84375 15.515625 -54.945312 15.828125 -55 C 16.140625 -55.050781 16.53125 -55.050781 17 -55 Z M 25.15625 -55 C 25.738281 -54.945312 26.222656 -54.867188 26.609375 -54.765625 C 27.003906 -54.660156 27.410156 -54.476562 27.828125 -54.21875 C 27.203125 -52.914062 26.640625 -51.519531 26.140625 -50.03125 C 25.640625 -48.539062 25.234375 -47.113281 24.921875 -45.75 C 24.554688 -45.695312 24.046875 -45.671875 23.390625 -45.671875 C 22.742188 -45.671875 22.109375 -45.695312 21.484375 -45.75 C 21.429688 -45.957031 21.40625 -46.179688 21.40625 -46.421875 C 21.40625 -46.660156 21.40625 -47.015625 21.40625 -47.484375 C 21.40625 -48.679688 21.535156 -49.957031 21.796875 -51.3125 C 22.054688 -52.675781 22.394531 -53.800781 22.8125 -54.6875 C 23.28125 -54.84375 23.671875 -54.945312 23.984375 -55 C 24.296875 -55.050781 24.6875 -55.050781 25.15625 -55 Z M 25.15625 -55 "/></g></g></g><g fill="#000000" fill-opacity="1"><g transform="translate(200.598129, 81.42878)"><g><path d="M 13.875 0.78125 C 10.375 0.78125 7.722656 -1.082031 5.921875 -4.8125 C 4.117188 -8.550781 3.21875 -14.023438 3.21875 -21.234375 C 3.21875 -24.890625 3.503906 -28.503906 4.078125 -32.078125 C 4.648438 -35.660156 5.378906 -38.289062 6.265625 -39.96875 C 6.578125 -40.070312 6.898438 -40.160156 7.234375 -40.234375 C 7.578125 -40.316406 7.9375 -40.359375 8.3125 -40.359375 C 8.570312 -40.359375 8.84375 -40.316406 9.125 -40.234375 C 9.414062 -40.160156 9.691406 -40.070312 9.953125 -39.96875 C 9.117188 -37.457031 8.476562 -34.566406 8.03125 -31.296875 C 7.582031 -28.035156 7.359375 -24.421875 7.359375 -20.453125 C 7.359375 -15.328125 8 -11.09375 9.28125 -7.75 C 10.5625 -4.414062 12.300781 -2.75 14.5 -2.75 C 17.164062 -2.75 19.203125 -4.679688 20.609375 -8.546875 C 22.015625 -12.410156 22.71875 -17.921875 22.71875 -25.078125 C 22.71875 -27.160156 22.613281 -29.300781 22.40625 -31.5 C 22.195312 -33.695312 21.988281 -35.238281 21.78125 -36.125 C 22.351562 -36.382812 23.070312 -36.59375 23.9375 -36.75 C 24.800781 -36.90625 25.570312 -36.984375 26.25 -36.984375 C 26.507812 -35.835938 26.703125 -34.441406 26.828125 -32.796875 C 26.960938 -31.148438 27.03125 -29.488281 27.03125 -27.8125 C 27.03125 -18.570312 25.921875 -11.492188 23.703125 -6.578125 C 21.484375 -1.671875 18.207031 0.78125 13.875 0.78125 Z M 13.875 0.78125 "/></g></g></g><g fill="#000000" fill-opacity="1"><g transform="translate(230.845154, 81.42878)"><g><path d="M 8.234375 -19.828125 C 8.234375 -14.910156 8.921875 -11.039062 10.296875 -8.21875 C 11.679688 -5.40625 13.550781 -4 15.90625 -4 C 17.894531 -4 19.578125 -5.039062 20.953125 -7.125 C 22.335938 -9.21875 23.503906 -12.507812 24.453125 -17 C 24.296875 -20.757812 23.992188 -24.128906 23.546875 -27.109375 C 23.097656 -30.085938 22.429688 -33.039062 21.546875 -35.96875 C 21.078125 -36.175781 20.554688 -36.332031 19.984375 -36.4375 C 19.410156 -36.539062 18.78125 -36.59375 18.09375 -36.59375 C 14.757812 -36.59375 12.28125 -35.207031 10.65625 -32.4375 C 9.039062 -29.664062 8.234375 -25.460938 8.234375 -19.828125 Z M 28.921875 -13.25 C 28.921875 -2.75 27.625 5.304688 25.03125 10.921875 C 22.445312 16.546875 18.9375 19.359375 14.5 19.359375 C 11.363281 19.359375 8.765625 18.234375 6.703125 15.984375 C 4.640625 13.734375 3.265625 10.675781 2.578125 6.8125 C 3.316406 6.34375 4.035156 5.953125 4.734375 5.640625 C 5.441406 5.328125 6.132812 5.066406 6.8125 4.859375 C 7.382812 8.722656 8.296875 11.515625 9.546875 13.234375 C 10.804688 14.960938 12.535156 15.828125 14.734375 15.828125 C 17.609375 15.828125 19.878906 13.816406 21.546875 9.796875 C 23.222656 5.773438 24.191406 -0.0976562 24.453125 -7.828125 C 23.398438 -5.273438 22.179688 -3.382812 20.796875 -2.15625 C 19.421875 -0.925781 17.765625 -0.3125 15.828125 -0.3125 C 12.066406 -0.3125 9.078125 -2.085938 6.859375 -5.640625 C 4.640625 -9.191406 3.53125 -14.023438 3.53125 -20.140625 C 3.53125 -26.253906 4.847656 -31.125 7.484375 -34.75 C 10.117188 -38.382812 13.628906 -40.203125 18.015625 -40.203125 C 19.429688 -40.203125 20.84375 -40.015625 22.25 -39.640625 C 23.664062 -39.273438 25 -38.753906 26.25 -38.078125 C 27.03125 -34.628906 27.671875 -30.617188 28.171875 -26.046875 C 28.671875 -21.484375 28.921875 -17.21875 28.921875 -13.25 Z M 28.921875 -13.25 "/></g></g></g><g fill="#000000" fill-opacity="1"><g transform="translate(264.540024, 81.42878)"><g><path d="M 11.359375 -57.90625 C 11.929688 -57.851562 12.414062 -57.773438 12.8125 -57.671875 C 13.207031 -57.566406 13.613281 -57.382812 14.03125 -57.125 C 13.394531 -55.820312 12.828125 -54.425781 12.328125 -52.9375 C 11.835938 -51.445312 11.4375 -50.019531 11.125 -48.65625 C 10.757812 -48.601562 10.25 -48.578125 9.59375 -48.578125 C 8.945312 -48.578125 8.304688 -48.601562 7.671875 -48.65625 C 7.617188 -48.863281 7.59375 -49.085938 7.59375 -49.328125 C 7.59375 -49.566406 7.59375 -49.921875 7.59375 -50.390625 C 7.59375 -51.585938 7.722656 -52.863281 7.984375 -54.21875 C 8.253906 -55.582031 8.597656 -56.707031 9.015625 -57.59375 C 9.484375 -57.75 9.875 -57.851562 10.1875 -57.90625 C 10.5 -57.957031 10.890625 -57.957031 11.359375 -57.90625 Z M 6.109375 -39.015625 C 6.578125 -39.285156 7.046875 -39.484375 7.515625 -39.609375 C 7.992188 -39.742188 8.46875 -39.8125 8.9375 -39.8125 C 9.144531 -39.8125 9.378906 -39.796875 9.640625 -39.765625 C 9.898438 -39.742188 10.160156 -39.679688 10.421875 -39.578125 C 9.378906 -33.722656 8.695312 -27.113281 8.375 -19.75 C 8.0625 -12.382812 8.171875 -5.695312 8.703125 0.3125 C 8.390625 0.414062 8.0625 0.503906 7.71875 0.578125 C 7.375 0.660156 7.019531 0.703125 6.65625 0.703125 C 6.445312 0.703125 6.238281 0.6875 6.03125 0.65625 C 5.820312 0.632812 5.613281 0.597656 5.40625 0.546875 C 4.519531 -5.929688 4.15625 -12.734375 4.3125 -19.859375 C 4.46875 -26.992188 5.066406 -33.378906 6.109375 -39.015625 Z M 6.109375 -39.015625 "/></g></g></g><g fill="#000000" fill-opacity="1"><g transform="translate(279.3501, 81.42878)"><g><path d="M 8.234375 -19.828125 C 8.234375 -14.910156 8.921875 -11.039062 10.296875 -8.21875 C 11.679688 -5.40625 13.550781 -4 15.90625 -4 C 17.894531 -4 19.578125 -5.039062 20.953125 -7.125 C 22.335938 -9.21875 23.503906 -12.507812 24.453125 -17 C 24.296875 -20.757812 23.992188 -24.128906 23.546875 -27.109375 C 23.097656 -30.085938 22.429688 -33.039062 21.546875 -35.96875 C 21.078125 -36.175781 20.554688 -36.332031 19.984375 -36.4375 C 19.410156 -36.539062 18.78125 -36.59375 18.09375 -36.59375 C 14.757812 -36.59375 12.28125 -35.207031 10.65625 -32.4375 C 9.039062 -29.664062 8.234375 -25.460938 8.234375 -19.828125 Z M 28.921875 -13.25 C 28.921875 -2.75 27.625 5.304688 25.03125 10.921875 C 22.445312 16.546875 18.9375 19.359375 14.5 19.359375 C 11.363281 19.359375 8.765625 18.234375 6.703125 15.984375 C 4.640625 13.734375 3.265625 10.675781 2.578125 6.8125 C 3.316406 6.34375 4.035156 5.953125 4.734375 5.640625 C 5.441406 5.328125 6.132812 5.066406 6.8125 4.859375 C 7.382812 8.722656 8.296875 11.515625 9.546875 13.234375 C 10.804688 14.960938 12.535156 15.828125 14.734375 15.828125 C 17.609375 15.828125 19.878906 13.816406 21.546875 9.796875 C 23.222656 5.773438 24.191406 -0.0976562 24.453125 -7.828125 C 23.398438 -5.273438 22.179688 -3.382812 20.796875 -2.15625 C 19.421875 -0.925781 17.765625 -0.3125 15.828125 -0.3125 C 12.066406 -0.3125 9.078125 -2.085938 6.859375 -5.640625 C 4.640625 -9.191406 3.53125 -14.023438 3.53125 -20.140625 C 3.53125 -26.253906 4.847656 -31.125 7.484375 -34.75 C 10.117188 -38.382812 13.628906 -40.203125 18.015625 -40.203125 C 19.429688 -40.203125 20.84375 -40.015625 22.25 -39.640625 C 23.664062 -39.273438 25 -38.753906 26.25 -38.078125 C 27.03125 -34.628906 27.671875 -30.617188 28.171875 -26.046875 C 28.671875 -21.484375 28.921875 -17.21875 28.921875 -13.25 Z M 28.921875 -13.25 "/></g></g></g><g mask="url(#f916ddb60d)"><g transform="matrix(1, 0, 0, 1, 109, 12)"><g clip-path="url(#79b49bbd4a)"><path fill="#000000" d="M 13.015625 31.328125 C 12.882812 31.328125 12.746094 31.289062 12.621094 31.21875 C 12.253906 31 12.132812 30.53125 12.351562 30.164062 C 13.34375 28.503906 14.421875 26.921875 15.550781 25.464844 C 15.8125 25.128906 16.296875 25.066406 16.628906 25.324219 C 16.964844 25.585938 17.023438 26.066406 16.769531 26.398438 C 15.675781 27.8125 14.632812 29.34375 13.671875 30.949219 C 13.53125 31.195312 13.277344 31.328125 13.015625 31.328125 Z M 13.015625 31.328125 " fill-opacity="1" fill-rule="nonzero"/><path fill="#000000" d="M 2.160156 86.335938 C 1.769531 86.335938 1.433594 86.039062 1.390625 85.644531 C 0.398438 75.636719 1.292969 64.460938 4.0625 52.429688 C 5.957031 44.179688 8.207031 37.78125 11.148438 32.292969 C 11.347656 31.917969 11.816406 31.777344 12.1875 31.976562 C 12.566406 32.179688 12.703125 32.648438 12.503906 33.019531 C 9.632812 38.382812 7.421875 44.660156 5.558594 52.777344 C 2.835938 64.644531 1.945312 75.65625 2.917969 85.492188 C 2.960938 85.917969 2.652344 86.289062 2.230469 86.332031 C 2.207031 86.335938 2.183594 86.335938 2.160156 86.335938 Z M 2.160156 86.335938 " fill-opacity="1" fill-rule="nonzero"/><path fill="#000000" d="M 4.886719 99.992188 C 4.554688 99.992188 4.253906 99.78125 4.148438 99.453125 C 3.691406 97.988281 2.726562 93.386719 2.089844 89.976562 C 2.011719 89.554688 2.292969 89.152344 2.707031 89.074219 C 3.125 89 3.527344 89.277344 3.605469 89.6875 C 4.3125 93.492188 5.230469 97.75 5.621094 98.992188 C 5.75 99.398438 5.519531 99.828125 5.117188 99.953125 C 5.035156 99.980469 4.957031 99.992188 4.886719 99.992188 Z M 4.886719 99.992188 " fill-opacity="1" fill-rule="nonzero"/><g clip-path="url(#58c562c33a)"><path fill="#000000" d="M 89.417969 147.632812 C 89.050781 147.632812 88.730469 147.375 88.664062 147.003906 C 88.582031 146.585938 88.855469 146.183594 89.277344 146.105469 C 93.007812 145.398438 96.6875 144.40625 100.21875 143.160156 C 100.621094 143.019531 101.058594 143.226562 101.199219 143.628906 C 101.339844 144.03125 101.132812 144.46875 100.730469 144.609375 C 97.128906 145.878906 93.367188 146.894531 89.5625 147.613281 C 89.515625 147.625 89.464844 147.632812 89.417969 147.632812 Z M 89.417969 147.632812 " fill-opacity="1" fill-rule="nonzero"/></g><path fill="#000000" d="M 108.113281 141.457031 C 107.824219 141.457031 107.550781 141.296875 107.417969 141.023438 C 107.230469 140.640625 107.386719 140.179688 107.769531 139.996094 C 127.652344 130.300781 142.421875 111.742188 147.28125 90.359375 C 147.375 89.945312 147.789062 89.683594 148.203125 89.78125 C 148.617188 89.871094 148.878906 90.285156 148.78125 90.699219 C 146.359375 101.363281 141.34375 111.679688 134.277344 120.535156 C 127.242188 129.363281 118.304688 136.570312 108.441406 141.382812 C 108.335938 141.433594 108.222656 141.457031 108.113281 141.457031 Z M 108.113281 141.457031 " fill-opacity="1" fill-rule="nonzero"/><path fill="#000000" d="M 117.769531 15.28125 C 117.621094 15.28125 117.476562 15.238281 117.347656 15.152344 C 114.015625 12.96875 110.441406 11.050781 106.734375 9.453125 C 106.347656 9.28125 106.164062 8.832031 106.335938 8.441406 C 106.503906 8.054688 106.957031 7.871094 107.34375 8.039062 C 111.136719 9.671875 114.78125 11.636719 118.1875 13.863281 C 118.542969 14.09375 118.644531 14.574219 118.414062 14.925781 C 118.269531 15.160156 118.019531 15.28125 117.769531 15.28125 Z M 117.769531 15.28125 " fill-opacity="1" fill-rule="nonzero"/><path fill="#000000" d="M 100.84375 7.175781 C 100.765625 7.175781 100.6875 7.164062 100.609375 7.140625 C 98.910156 6.582031 97.15625 6.074219 95.398438 5.636719 C 94.984375 5.535156 94.734375 5.113281 94.839844 4.703125 C 94.941406 4.289062 95.363281 4.039062 95.777344 4.140625 C 97.570312 4.589844 99.359375 5.109375 101.09375 5.675781 C 101.496094 5.808594 101.722656 6.242188 101.589844 6.648438 C 101.472656 6.96875 101.167969 7.175781 100.84375 7.175781 Z M 100.84375 7.175781 " fill-opacity="1" fill-rule="nonzero"/><path fill="#000000" d="M 95.582031 5.65625 C 95.519531 5.65625 95.453125 5.648438 95.394531 5.632812 C 83.617188 2.683594 70.515625 2.40625 57.492188 4.851562 C 57.074219 4.933594 56.671875 4.660156 56.59375 4.238281 C 56.511719 3.820312 56.789062 3.417969 57.207031 3.339844 C 70.441406 0.855469 83.777344 1.136719 95.765625 4.140625 C 96.179688 4.246094 96.425781 4.664062 96.324219 5.078125 C 96.238281 5.417969 95.929688 5.65625 95.582031 5.65625 Z M 95.582031 5.65625 " fill-opacity="1" fill-rule="nonzero"/><path fill="#000000" d="M 74.914062 144.960938 C 64.808594 144.960938 54.683594 142.90625 45.347656 138.78125 C 27.480469 130.882812 13.554688 115.6875 8.105469 98.136719 C 4.183594 85.511719 4.15625 70.5625 8.023438 53.726562 C 9.632812 46.730469 12.511719 36.472656 18.882812 28.242188 C 24.777344 20.628906 33.773438 14.609375 44.882812 10.84375 C 56.792969 6.804688 69.335938 5.121094 81.164062 5.964844 C 94.101562 6.890625 105.769531 10.707031 115.832031 17.289062 C 121.460938 20.972656 126.441406 25.394531 130.628906 30.425781 C 144.003906 46.523438 149.414062 69.296875 144.734375 89.867188 C 142.445312 99.9375 137.710938 109.683594 131.035156 118.046875 C 124.390625 126.382812 115.949219 133.195312 106.625 137.738281 C 96.785156 142.546875 85.863281 144.953125 74.914062 144.960938 Z M 75.128906 7.269531 C 65.453125 7.269531 55.40625 8.949219 45.402344 12.339844 C 34.585938 16.011719 25.855469 21.84375 20.148438 29.210938 C 13.957031 37.191406 11.148438 47.230469 9.578125 54.078125 C 5.773438 70.644531 5.785156 85.304688 9.625 97.664062 C 14.945312 114.789062 28.539062 129.613281 45.992188 137.328125 C 65.003906 145.726562 87.414062 145.351562 105.9375 136.316406 C 124.683594 127.171875 138.613281 109.679688 143.195312 89.511719 C 147.765625 69.414062 142.480469 47.160156 129.410156 31.4375 C 125.328125 26.523438 120.472656 22.207031 114.96875 18.605469 C 103.480469 11.09375 89.726562 7.269531 75.128906 7.269531 Z M 75.128906 7.269531 " fill-opacity="1" fill-rule="nonzero"/><path fill="#000000" d="M 11.1875 104.910156 C 10.988281 104.910156 10.789062 104.835938 10.636719 104.683594 C 10.324219 104.378906 10.320312 103.875 10.625 103.566406 C 11.90625 102.25 13.015625 100.882812 13.671875 100.0625 C 13.800781 99.898438 13.914062 99.761719 14 99.652344 C 15.667969 97.601562 15.253906 94.78125 14.808594 91.792969 C 14.542969 89.992188 14.269531 88.136719 14.492188 86.441406 C 14.753906 84.425781 14.132812 83.09375 13.34375 81.402344 C 12.964844 80.59375 12.535156 79.675781 12.179688 78.597656 C 11.546875 76.6875 11.804688 75.046875 12.820312 74.519531 C 13.445312 74.1875 14.46875 74.175781 15.808594 75.972656 C 16.257812 76.578125 16.570312 77.097656 16.835938 77.554688 C 17.378906 78.472656 17.707031 79.019531 18.808594 79.609375 C 19.171875 79.804688 19.542969 79.980469 19.910156 80.152344 C 21.277344 80.789062 22.691406 81.453125 23.585938 83.175781 C 23.851562 83.691406 24.011719 84.234375 24.144531 84.707031 C 24.429688 85.679688 24.625 86.253906 25.332031 86.59375 C 25.695312 86.769531 26.109375 86.800781 26.589844 86.835938 C 27.320312 86.890625 28.148438 86.953125 28.988281 87.53125 C 29.578125 87.9375 30.023438 88.550781 30.457031 89.140625 C 30.828125 89.648438 31.203125 90.167969 31.605469 90.4375 C 32.488281 91.019531 32.738281 90.996094 32.742188 90.992188 C 32.835938 90.9375 33.042969 90.570312 33.199219 90.296875 C 33.320312 90.078125 33.460938 89.835938 33.632812 89.574219 C 33.820312 89.28125 33.925781 89.085938 34.015625 88.929688 C 34.253906 88.492188 34.378906 88.289062 35.09375 87.589844 C 35.300781 87.390625 35.5 87.207031 35.6875 87.035156 C 36.238281 86.542969 36.632812 86.191406 36.960938 85.511719 C 37.835938 83.679688 37.683594 80.898438 37.5625 78.660156 L 37.53125 78.039062 C 37.441406 76.203125 37.875 75.148438 38.335938 74.042969 C 38.574219 73.472656 38.816406 72.886719 39.03125 72.109375 C 39.296875 71.128906 39.15625 70.148438 39.011719 69.117188 C 38.902344 68.34375 38.785156 67.539062 38.835938 66.695312 C 38.945312 64.675781 40.078125 63.269531 41.179688 61.914062 C 41.730469 61.230469 42.25 60.585938 42.644531 59.871094 C 43.328125 58.648438 43.257812 57.410156 43.191406 56.105469 C 43.132812 54.972656 43.078125 53.804688 43.464844 52.5625 C 43.796875 51.511719 44.421875 50.59375 45.019531 49.703125 C 45.578125 48.878906 46.105469 48.09375 46.394531 47.234375 C 46.933594 45.605469 46.667969 44.59375 46.253906 43.0625 C 46.203125 42.875 46.148438 42.679688 46.09375 42.476562 C 45.171875 38.894531 47.355469 38.007812 49.285156 37.222656 C 49.988281 36.9375 50.714844 36.636719 51.394531 36.210938 C 54.378906 34.339844 55.332031 31.097656 55.917969 27.867188 C 56.085938 26.921875 56.890625 25.707031 57.742188 24.417969 C 58.429688 23.371094 59.714844 21.425781 59.53125 20.882812 C 59.476562 20.828125 59.171875 20.722656 58.996094 20.664062 C 58.523438 20.503906 57.875 20.285156 57.597656 19.652344 C 57.402344 19.214844 57.4375 18.710938 57.707031 18.113281 C 58.265625 16.863281 59.789062 16.921875 60.699219 16.964844 C 60.929688 16.976562 61.144531 16.984375 61.289062 16.972656 C 61.796875 16.933594 62.539062 16.953125 63.476562 16.976562 C 65.707031 17.039062 70.941406 17.171875 71.386719 15.675781 C 71.460938 15.4375 71.375 15.253906 71.128906 14.835938 C 70.84375 14.347656 70.417969 13.605469 70.789062 12.652344 C 71.039062 12.027344 71.789062 11.597656 72.65625 11.105469 C 73.097656 10.863281 73.691406 10.523438 73.84375 10.328125 C 74.769531 9.167969 74.445312 8.558594 73.550781 7.183594 L 73.40625 6.957031 C 73.167969 6.59375 73.277344 6.101562 73.644531 5.863281 C 74.007812 5.625 74.5 5.730469 74.738281 6.101562 L 74.878906 6.320312 C 75.710938 7.609375 76.753906 9.207031 75.078125 11.3125 C 74.734375 11.75 74.101562 12.105469 73.429688 12.480469 C 73.042969 12.699219 72.394531 13.066406 72.246094 13.253906 C 72.175781 13.449219 72.238281 13.601562 72.488281 14.03125 C 72.773438 14.527344 73.167969 15.207031 72.894531 16.121094 C 72.097656 18.777344 67.082031 18.644531 63.421875 18.546875 C 62.5625 18.523438 61.824219 18.503906 61.398438 18.535156 C 61.164062 18.550781 60.902344 18.539062 60.621094 18.527344 C 60.144531 18.511719 59.265625 18.472656 59.140625 18.742188 C 59.09375 18.855469 59.070312 18.9375 59.058594 18.984375 C 59.160156 19.039062 59.347656 19.101562 59.488281 19.148438 C 59.996094 19.320312 60.753906 19.574219 61.023438 20.359375 C 61.453125 21.636719 60.285156 23.40625 59.058594 25.273438 C 58.363281 26.328125 57.578125 27.511719 57.46875 28.132812 C 56.847656 31.546875 55.742188 35.328125 52.230469 37.539062 C 51.433594 38.035156 50.605469 38.378906 49.875 38.675781 C 47.925781 39.464844 47.039062 39.832031 47.621094 42.070312 C 47.671875 42.265625 47.726562 42.453125 47.773438 42.640625 C 48.207031 44.253906 48.585938 45.648438 47.890625 47.734375 C 47.539062 48.796875 46.917969 49.710938 46.320312 50.585938 C 45.761719 51.421875 45.230469 52.199219 44.964844 53.039062 C 44.660156 54.003906 44.707031 54.984375 44.761719 56.019531 C 44.835938 57.417969 44.914062 59.011719 44.019531 60.628906 C 43.558594 61.46875 42.96875 62.199219 42.394531 62.898438 C 41.414062 64.109375 40.484375 65.257812 40.40625 66.761719 C 40.367188 67.457031 40.464844 68.148438 40.570312 68.878906 C 40.734375 70.027344 40.90625 71.21875 40.546875 72.515625 C 40.308594 73.386719 40.027344 74.050781 39.785156 74.632812 C 39.347656 75.691406 39.03125 76.457031 39.101562 77.9375 L 39.132812 78.550781 C 39.265625 80.964844 39.433594 83.976562 38.378906 86.167969 C 37.917969 87.132812 37.34375 87.644531 36.734375 88.1875 C 36.558594 88.34375 36.375 88.507812 36.1875 88.691406 C 35.617188 89.25 35.5625 89.34375 35.390625 89.660156 C 35.300781 89.824219 35.171875 90.054688 34.957031 90.394531 C 34.8125 90.625 34.691406 90.839844 34.570312 91.046875 C 34.199219 91.703125 33.84375 92.316406 33.101562 92.492188 C 32.46875 92.644531 31.777344 92.421875 30.71875 91.714844 C 30.085938 91.289062 29.617188 90.648438 29.164062 90.035156 C 28.792969 89.53125 28.449219 89.050781 28.082031 88.796875 C 27.59375 88.460938 27.074219 88.417969 26.46875 88.375 C 25.910156 88.332031 25.277344 88.285156 24.644531 87.984375 C 23.261719 87.324219 22.921875 86.148438 22.617188 85.113281 C 22.488281 84.671875 22.367188 84.25 22.167969 83.867188 C 21.523438 82.621094 20.511719 82.152344 19.234375 81.550781 C 18.851562 81.375 18.460938 81.183594 18.058594 80.972656 C 16.570312 80.175781 16.058594 79.316406 15.472656 78.320312 C 15.210938 77.875 14.945312 77.417969 14.542969 76.882812 C 14.011719 76.171875 13.671875 75.976562 13.542969 75.929688 C 13.421875 76.167969 13.320312 76.949219 13.691406 78.070312 C 14.011719 79.054688 14.410156 79.890625 14.785156 80.699219 C 15.613281 82.46875 16.390625 84.136719 16.070312 86.609375 C 15.875 88.089844 16.125 89.761719 16.386719 91.527344 C 16.855469 94.71875 17.347656 98.023438 15.234375 100.621094 C 15.144531 100.730469 15.035156 100.863281 14.914062 101.023438 C 14.238281 101.867188 13.101562 103.277344 11.761719 104.640625 C 11.601562 104.832031 11.394531 104.910156 11.1875 104.910156 Z M 11.1875 104.910156 " fill-opacity="1" fill-rule="nonzero"/><path fill="#000000" d="M 55.460938 41.984375 C 55.082031 41.984375 54.753906 41.71875 54.683594 41.339844 C 54.152344 38.546875 56.488281 36.195312 58.550781 34.121094 C 59.484375 33.183594 60.359375 32.300781 60.835938 31.515625 C 61.460938 30.476562 61.34375 30.042969 61.097656 29.089844 C 60.984375 28.675781 60.859375 28.199219 60.773438 27.605469 C 60.519531 25.808594 60.554688 23.449219 62.179688 22.371094 C 62.464844 22.183594 62.835938 22.195312 63.105469 22.410156 C 63.652344 22.835938 64.132812 23.761719 64.746094 25.023438 C 64.941406 25.421875 65.125 25.796875 65.265625 26.035156 C 65.757812 26.875 66.183594 27.980469 66.558594 29.417969 C 66.707031 29.40625 66.859375 29.441406 66.988281 29.507812 C 68.105469 30.109375 68.308594 30.917969 68.277344 31.492188 C 68.160156 33.707031 64.175781 35.847656 63.445312 36.144531 C 62.167969 36.675781 61.253906 37.253906 60.105469 38.074219 C 59.660156 38.390625 59.160156 38.984375 58.6875 39.5625 C 57.773438 40.660156 56.828125 41.796875 55.582031 41.984375 C 55.539062 41.980469 55.496094 41.984375 55.460938 41.984375 Z M 62.570312 24.265625 C 62.105469 25.183594 62.246094 26.671875 62.34375 27.378906 C 62.417969 27.882812 62.519531 28.292969 62.628906 28.6875 C 62.921875 29.78125 63.171875 30.726562 62.191406 32.34375 C 61.617188 33.292969 60.675781 34.242188 59.679688 35.246094 C 58.246094 36.679688 56.671875 38.269531 56.289062 39.855469 C 56.683594 39.492188 57.089844 39.003906 57.476562 38.546875 C 58.015625 37.898438 58.582031 37.222656 59.191406 36.785156 C 60.4375 35.894531 61.4375 35.269531 62.847656 34.683594 C 63.972656 34.222656 66.652344 32.402344 66.699219 31.414062 C 66.699219 31.375 66.707031 31.285156 66.597656 31.164062 C 66.4375 31.210938 66.261719 31.222656 66.066406 31.242188 C 65.679688 31.273438 65.320312 31.015625 65.226562 30.632812 C 64.839844 28.9375 64.398438 27.695312 63.902344 26.839844 C 63.730469 26.546875 63.535156 26.144531 63.328125 25.726562 C 63.128906 25.324219 62.835938 24.722656 62.570312 24.265625 Z M 67.175781 30.214844 Z M 67.175781 30.214844 Z M 67.175781 30.214844 Z M 67.175781 30.214844 Z M 67.175781 30.214844 " fill-opacity="1" fill-rule="nonzero"/><path fill="#000000" d="M 51.941406 73.96875 C 50.324219 73.96875 48.542969 72.980469 47.730469 72.292969 C 46.09375 70.90625 45.644531 68.429688 46.628906 66.347656 C 46.703125 65.242188 47.03125 62.441406 48.414062 61.640625 C 48.957031 61.324219 49.59375 61.328125 50.214844 61.65625 C 51.140625 62.144531 51.035156 63.34375 50.957031 64.21875 C 50.933594 64.472656 50.910156 64.789062 50.925781 64.917969 C 51.074219 65.917969 51.625 66.707031 52.09375 67.289062 C 52.273438 67.511719 52.539062 67.773438 52.824219 68.050781 C 53.910156 69.105469 55.714844 70.863281 54.292969 72.851562 C 53.847656 73.464844 53.191406 73.847656 52.394531 73.945312 C 52.242188 73.957031 52.089844 73.96875 51.941406 73.96875 Z M 47.910156 67.386719 C 47.441406 68.726562 47.769531 70.246094 48.753906 71.082031 C 49.492188 71.707031 51.101562 72.503906 52.191406 72.371094 C 52.558594 72.328125 52.8125 72.183594 52.996094 71.925781 C 53.539062 71.171875 53.039062 70.472656 51.710938 69.1875 C 51.390625 68.878906 51.085938 68.582031 50.847656 68.289062 C 50.257812 67.550781 49.546875 66.53125 49.34375 65.15625 C 49.296875 64.839844 49.332031 64.472656 49.363281 64.085938 C 49.386719 63.78125 49.4375 63.246094 49.382812 63.027344 C 49.257812 62.976562 49.21875 63.003906 49.199219 63.015625 C 48.667969 63.320312 48.226562 65.277344 48.183594 66.816406 C 48.183594 67.042969 48.074219 67.25 47.910156 67.386719 Z M 47.910156 67.386719 " fill-opacity="1" fill-rule="nonzero"/><path fill="#000000" d="M 48.6875 98.429688 C 46.824219 98.429688 44.910156 97.796875 42.992188 96.550781 C 42.75 96.394531 42.417969 96.210938 42.066406 96.015625 C 41.414062 95.65625 40.714844 95.28125 40.144531 94.828125 C 39.953125 94.816406 39.765625 94.730469 39.625 94.578125 C 39.28125 94.207031 38.96875 93.789062 39.019531 93.21875 C 38.289062 90.84375 39.363281 89.300781 40.410156 87.804688 C 40.976562 86.988281 41.566406 86.148438 41.945312 85.101562 C 43.101562 81.898438 46.667969 77.359375 50.652344 77.820312 C 51.421875 77.914062 51.992188 78.203125 52.355469 78.691406 C 53.015625 79.566406 52.800781 80.769531 52.601562 81.9375 C 52.519531 82.40625 52.4375 82.898438 52.417969 83.324219 C 52.332031 85.207031 52.636719 85.777344 53.292969 87.03125 C 53.527344 87.476562 53.792969 87.980469 54.085938 88.628906 C 55.289062 91.296875 55.320312 93.988281 54.160156 95.839844 C 53.445312 96.976562 51.957031 98.34375 48.894531 98.425781 C 48.828125 98.429688 48.761719 98.429688 48.6875 98.429688 Z M 40.683594 93.175781 C 41.074219 93.667969 42.109375 94.238281 42.828125 94.628906 C 43.203125 94.835938 43.5625 95.03125 43.855469 95.226562 C 45.570312 96.339844 47.246094 96.878906 48.851562 96.84375 C 50.714844 96.792969 52.082031 96.160156 52.8125 95 C 53.691406 93.601562 53.628906 91.464844 52.644531 89.289062 C 52.371094 88.679688 52.113281 88.199219 51.886719 87.773438 C 51.195312 86.445312 50.730469 85.570312 50.828125 83.265625 C 50.855469 82.734375 50.945312 82.199219 51.035156 81.675781 C 51.175781 80.878906 51.328125 79.980469 51.085938 79.652344 C 50.992188 79.523438 50.785156 79.445312 50.46875 79.410156 C 47.226562 79.039062 44.289062 83.289062 43.4375 85.648438 C 42.984375 86.890625 42.308594 87.859375 41.714844 88.714844 C 40.65625 90.238281 39.925781 91.28125 40.683594 93.175781 Z M 40.683594 93.175781 " fill-opacity="1" fill-rule="nonzero"/><path fill="#000000" d="M 62.488281 97.074219 C 62.125 97.074219 61.753906 97.027344 61.386719 96.921875 C 59.457031 96.386719 59.074219 94.058594 58.742188 92.007812 C 58.589844 91.070312 58.425781 90.101562 58.144531 89.523438 C 57.328125 87.859375 56.945312 86.660156 57.574219 85.8125 C 58.222656 84.945312 59.59375 85.035156 60.847656 85.242188 C 63.542969 85.6875 63.9375 86.714844 64.371094 88.363281 C 64.441406 88.636719 64.515625 88.933594 64.621094 89.25 C 64.660156 89.257812 64.710938 89.261719 64.753906 89.28125 C 65.167969 89.402344 66.726562 89.769531 67.59375 89.925781 C 67.800781 89.960938 67.992188 90.085938 68.105469 90.253906 C 68.226562 90.429688 68.269531 90.644531 68.234375 90.851562 C 67.941406 92.394531 66.761719 95.15625 64.722656 96.421875 C 64.003906 96.847656 63.257812 97.074219 62.488281 97.074219 Z M 58.84375 86.757812 C 58.8125 86.878906 58.824219 87.328125 59.5625 88.820312 C 59.953125 89.609375 60.121094 90.644531 60.304688 91.746094 C 60.566406 93.328125 60.863281 95.121094 61.8125 95.390625 C 62.527344 95.589844 63.203125 95.480469 63.871094 95.066406 C 65.070312 94.324219 66.019531 92.710938 66.46875 91.308594 C 65.988281 91.203125 65.457031 91.082031 65.03125 90.980469 C 64.960938 91.148438 64.820312 91.296875 64.636719 91.378906 C 64.234375 91.5625 63.765625 91.386719 63.585938 90.992188 C 63.175781 90.101562 62.980469 89.355469 62.828125 88.753906 C 62.488281 87.445312 62.398438 87.097656 60.585938 86.800781 C 59.300781 86.585938 58.921875 86.71875 58.84375 86.757812 Z M 58.84375 86.757812 " fill-opacity="1" fill-rule="nonzero"/><path fill="#000000" d="M 48.871094 108.132812 C 47.386719 108.132812 45.941406 107.507812 45.46875 106.507812 C 45.230469 106.015625 44.902344 104.71875 46.960938 103.40625 C 48.292969 102.554688 50.058594 102.453125 51.765625 102.347656 C 52.878906 102.28125 53.933594 102.21875 54.765625 101.957031 C 55.667969 101.671875 56.441406 101.320312 57.1875 100.972656 C 58.570312 100.335938 60.007812 99.671875 62.050781 99.59375 C 62.792969 99.5625 64.769531 99.488281 65.027344 100.804688 C 65.457031 103.035156 58.769531 105.917969 58.703125 105.949219 C 57.449219 106.398438 56.167969 106.546875 54.925781 106.683594 C 53.335938 106.867188 51.839844 107.03125 50.550781 107.824219 C 50.5 107.851562 50.445312 107.878906 50.386719 107.902344 C 49.90625 108.054688 49.386719 108.132812 48.871094 108.132812 Z M 50.140625 107.140625 Z M 62.5 101.167969 C 62.386719 101.167969 62.257812 101.167969 62.117188 101.175781 C 60.382812 101.242188 59.214844 101.78125 57.859375 102.410156 C 57.0625 102.773438 56.238281 103.15625 55.246094 103.46875 C 54.230469 103.789062 53.027344 103.855469 51.863281 103.929688 C 50.359375 104.019531 48.804688 104.113281 47.816406 104.738281 C 47.160156 105.160156 46.796875 105.597656 46.898438 105.820312 C 47.136719 106.320312 48.578125 106.78125 49.8125 106.410156 C 51.378906 105.488281 53.09375 105.292969 54.75 105.105469 C 55.953125 104.96875 57.085938 104.835938 58.167969 104.453125 C 59.695312 103.90625 62.628906 102.097656 63.328125 101.230469 C 63.164062 101.191406 62.902344 101.167969 62.5 101.167969 Z M 62.5 101.167969 " fill-opacity="1" fill-rule="nonzero"/><path fill="#000000" d="M 40.472656 106.449219 C 38.921875 106.449219 37.246094 105.480469 35.964844 104.738281 C 35.675781 104.574219 35.421875 104.421875 35.195312 104.308594 C 34.605469 103.996094 33.992188 103.710938 33.402344 103.429688 C 31.617188 102.589844 29.773438 101.726562 28.257812 100.074219 C 28.132812 99.933594 25.148438 96.640625 26.34375 95.003906 C 27.175781 93.863281 29.054688 94.71875 29.671875 95 C 31.308594 95.742188 32.9375 96.117188 34.515625 96.484375 C 35.933594 96.8125 37.398438 97.152344 38.824219 97.753906 C 38.847656 97.765625 38.878906 97.78125 38.902344 97.792969 C 40.539062 98.699219 44.523438 101.65625 43.375 104.398438 C 42.96875 105.371094 42.335938 106.011719 41.496094 106.289062 C 41.167969 106.398438 40.824219 106.449219 40.472656 106.449219 Z M 27.644531 96.003906 C 27.691406 96.472656 28.257812 97.726562 29.425781 98.996094 C 30.730469 100.417969 32.355469 101.1875 34.078125 101.988281 C 34.683594 102.273438 35.3125 102.566406 35.933594 102.894531 C 36.175781 103.023438 36.449219 103.179688 36.753906 103.359375 C 37.996094 104.074219 39.863281 105.152344 40.988281 104.773438 C 41.386719 104.640625 41.683594 104.3125 41.914062 103.773438 C 42.503906 102.359375 39.742188 100.066406 38.164062 99.183594 C 36.875 98.648438 35.554688 98.339844 34.15625 98.015625 C 32.5 97.632812 30.789062 97.238281 29.011719 96.429688 C 28.242188 96.082031 27.832031 96.015625 27.644531 96.003906 Z M 27.644531 96.003906 " fill-opacity="1" fill-rule="nonzero"/><path fill="#000000" d="M 89.332031 91.296875 C 88.949219 91.296875 88.558594 91.203125 88.167969 90.992188 C 87.300781 90.503906 87 89.609375 86.765625 88.886719 C 86.53125 88.191406 86.375 87.753906 85.972656 87.578125 C 85.089844 87.1875 83.625 87.546875 82.328125 87.863281 C 81.464844 88.078125 80.640625 88.277344 79.925781 88.289062 C 78.097656 88.332031 77.460938 87.808594 76.710938 87.011719 C 76.429688 86.714844 76.144531 86.402344 75.65625 86.09375 C 75.171875 85.785156 74.441406 85.875 73.667969 85.972656 C 72.785156 86.089844 71.789062 86.214844 70.992188 85.660156 C 69.65625 84.742188 69.75 81.582031 70.359375 80.359375 C 72.121094 76.804688 75.699219 78.050781 78.21875 79.054688 C 80.007812 75.464844 85.980469 76.566406 88.320312 77.003906 C 89.191406 77.171875 90.105469 77.390625 90.980469 77.609375 C 93.09375 78.132812 95.277344 78.671875 97.292969 78.441406 C 98.496094 78.300781 99.792969 77.558594 101.050781 76.835938 C 102.859375 75.800781 104.734375 74.722656 106.710938 75.121094 C 107.132812 75.207031 107.410156 75.605469 107.339844 76.027344 C 107.332031 76.074219 107.351562 76.214844 107.355469 76.304688 C 107.355469 76.3125 107.355469 76.324219 107.363281 76.332031 C 108.890625 76.988281 109.675781 77.789062 109.753906 78.769531 C 109.90625 80.699219 107.136719 82.253906 104.910156 83.507812 C 104.789062 83.574219 104.671875 83.640625 104.558594 83.710938 C 105.171875 84.042969 105.632812 84.140625 106.742188 84.191406 C 106.96875 84.203125 107.179688 84.304688 107.328125 84.488281 C 107.464844 84.664062 107.527344 84.894531 107.492188 85.121094 C 107.015625 87.820312 103.121094 88.589844 101.320312 88.539062 C 100.363281 88.507812 99.5 88.382812 98.667969 88.253906 C 96.882812 87.980469 95.476562 87.761719 93.925781 88.660156 C 93.605469 88.84375 93.207031 89.164062 92.792969 89.511719 C 91.84375 90.292969 90.609375 91.296875 89.332031 91.296875 Z M 85 85.828125 C 85.566406 85.828125 86.113281 85.910156 86.613281 86.128906 C 87.675781 86.597656 88.003906 87.589844 88.265625 88.386719 C 88.480469 89.03125 88.632812 89.433594 88.9375 89.605469 C 89.617188 89.980469 90.589844 89.261719 91.796875 88.285156 C 92.265625 87.902344 92.710938 87.542969 93.140625 87.292969 C 95.175781 86.117188 97.074219 86.410156 98.917969 86.691406 C 99.703125 86.8125 100.515625 86.933594 101.375 86.964844 C 102.566406 87 104.570312 86.585938 105.484375 85.675781 C 104.375 85.503906 103.808594 85.140625 102.785156 84.480469 L 102.621094 84.371094 C 102.398438 84.226562 102.261719 83.984375 102.257812 83.714844 C 102.25 83.449219 102.386719 83.199219 102.605469 83.046875 C 103 82.777344 103.527344 82.480469 104.144531 82.132812 C 105.476562 81.378906 108.257812 79.820312 108.183594 78.898438 C 108.160156 78.605469 107.660156 78.113281 106.324219 77.621094 C 105.976562 77.492188 105.761719 77.132812 105.8125 76.769531 C 105.816406 76.746094 105.8125 76.6875 105.804688 76.628906 C 104.570312 76.652344 103.242188 77.414062 101.84375 78.214844 C 100.445312 79.019531 99 79.847656 97.472656 80.023438 C 95.179688 80.285156 92.855469 79.710938 90.605469 79.152344 C 89.710938 78.933594 88.863281 78.722656 88.035156 78.570312 C 84.4375 77.90625 80.210938 77.5 79.441406 80.308594 C 79.382812 80.527344 79.234375 80.710938 79.035156 80.808594 C 78.835938 80.910156 78.597656 80.917969 78.390625 80.839844 L 77.984375 80.675781 C 75.054688 79.5 72.894531 78.84375 71.789062 81.074219 C 71.355469 81.9375 71.5 84.09375 71.902344 84.367188 C 72.203125 84.574219 72.847656 84.488281 73.480469 84.410156 C 74.40625 84.292969 75.546875 84.140625 76.527344 84.769531 C 77.179688 85.1875 77.574219 85.601562 77.886719 85.9375 C 78.402344 86.484375 78.632812 86.734375 79.90625 86.707031 C 80.449219 86.695312 81.183594 86.519531 81.960938 86.324219 C 82.9375 86.089844 84 85.828125 85 85.828125 Z M 85 85.828125 " fill-opacity="1" fill-rule="nonzero"/><path fill="#000000" d="M 74.351562 131.21875 C 73.785156 131.21875 73.207031 131.078125 72.617188 130.75 C 71.964844 130.386719 71.660156 129.839844 71.417969 129.394531 C 71.265625 129.113281 71.128906 128.871094 70.9375 128.707031 C 70.589844 128.410156 70.078125 128.238281 69.542969 128.050781 C 69.21875 127.941406 68.886719 127.824219 68.570312 127.679688 C 67.703125 127.277344 64.84375 125.769531 64.460938 123.316406 C 64.332031 122.5 64.453125 121.277344 65.726562 120.027344 C 66.09375 118.972656 66.890625 118.242188 67.660156 117.539062 C 68.355469 116.90625 69.007812 116.308594 69.335938 115.519531 C 69.65625 114.738281 69.664062 113.980469 69.675781 113.175781 C 69.6875 112.136719 69.699219 111.058594 70.417969 110.019531 C 70.730469 109.570312 71.117188 109.3125 71.433594 109.113281 C 71.804688 108.871094 72.03125 108.722656 72.175781 108.316406 C 72.285156 108.011719 72.203125 107.414062 72.121094 106.886719 C 71.996094 106.027344 71.859375 105.140625 72.28125 104.417969 C 73.207031 102.804688 74.984375 103.089844 76.277344 103.296875 C 77.15625 103.4375 77.976562 103.570312 78.328125 103.21875 C 78.492188 103.054688 78.488281 102.519531 78.480469 102.050781 C 78.46875 101.34375 78.457031 100.542969 78.933594 99.902344 C 79.589844 99.015625 81.105469 98.441406 82.4375 97.9375 C 82.871094 97.773438 83.269531 97.621094 83.582031 97.480469 C 86.320312 96.242188 87.867188 96.007812 90.34375 97.835938 C 90.585938 98.015625 90.839844 98.230469 91.085938 98.441406 C 91.5 98.800781 92.277344 99.464844 92.570312 99.417969 C 92.613281 99.410156 92.703125 99.324219 92.800781 99.15625 C 93.027344 98.765625 92.929688 97.96875 92.84375 97.195312 C 92.710938 96.027344 92.550781 94.707031 93.335938 93.746094 C 93.804688 93.167969 94.417969 92.839844 95.105469 92.792969 C 96.839844 92.667969 98.65625 94.355469 99.847656 95.46875 C 100.035156 95.644531 100.207031 95.800781 100.351562 95.929688 C 102.292969 97.621094 103.074219 98.109375 105.691406 98.59375 C 106.457031 98.742188 107.339844 98.785156 108.269531 98.832031 C 110.300781 98.933594 112.609375 99.050781 114.257812 100.335938 C 115.816406 101.550781 118.414062 103.582031 117.257812 106.625 C 116.964844 107.398438 116.453125 107.976562 115.96875 108.535156 C 115.546875 109.007812 115.160156 109.460938 114.957031 109.96875 C 114.761719 110.480469 114.757812 111.113281 114.757812 111.777344 C 114.757812 112.421875 114.757812 113.089844 114.582031 113.753906 C 114.332031 114.710938 113.800781 115.511719 113.296875 116.296875 C 112.9375 116.851562 112.597656 117.375 112.363281 117.921875 C 112.25 118.199219 112.164062 118.53125 112.066406 118.875 C 111.824219 119.789062 111.523438 120.925781 110.480469 121.609375 C 109.15625 122.464844 107.617188 122.324219 106.261719 122.199219 C 104.835938 122.0625 103.609375 121.949219 102.75 122.855469 C 102.5625 123.054688 102.476562 123.285156 102.371094 123.578125 C 102.171875 124.132812 101.898438 124.890625 100.832031 125.402344 C 99.632812 125.980469 98.199219 125.6875 96.925781 125.433594 C 96.554688 125.359375 96.207031 125.289062 95.902344 125.25 C 94.789062 125.105469 93.707031 124.886719 92.660156 124.671875 C 90.5 124.234375 88.457031 123.828125 86.253906 124.027344 C 84.117188 124.230469 82.925781 125.324219 81.414062 126.710938 C 80.847656 127.226562 80.265625 127.769531 79.589844 128.292969 C 79.347656 128.488281 79.089844 128.695312 78.828125 128.914062 C 77.617188 129.929688 76.066406 131.21875 74.351562 131.21875 Z M 74.703125 104.714844 C 74.183594 104.714844 73.855469 104.84375 73.65625 105.203125 C 73.515625 105.449219 73.613281 106.113281 73.691406 106.648438 C 73.800781 107.398438 73.917969 108.175781 73.667969 108.855469 C 73.339844 109.757812 72.738281 110.148438 72.300781 110.433594 C 72.050781 110.589844 71.855469 110.71875 71.722656 110.914062 C 71.277344 111.558594 71.269531 112.277344 71.257812 113.1875 C 71.246094 114.0625 71.234375 115.054688 70.796875 116.113281 C 70.332031 117.226562 69.480469 118.011719 68.726562 118.699219 C 68.003906 119.363281 67.382812 119.933594 67.179688 120.660156 C 67.144531 120.804688 67.066406 120.933594 66.957031 121.03125 C 66.21875 121.710938 65.914062 122.375 66.019531 123.066406 C 66.226562 124.398438 67.882812 125.609375 69.230469 126.238281 C 69.476562 126.347656 69.753906 126.445312 70.046875 126.546875 C 70.667969 126.761719 71.378906 127.003906 71.953125 127.488281 C 72.371094 127.847656 72.597656 128.261719 72.796875 128.628906 C 73.003906 129.003906 73.132812 129.230469 73.375 129.363281 C 74.726562 130.117188 76.066406 129.152344 77.8125 127.703125 C 78.085938 127.476562 78.355469 127.253906 78.609375 127.050781 C 79.234375 126.566406 79.796875 126.046875 80.332031 125.554688 C 81.925781 124.089844 83.429688 122.703125 86.09375 122.460938 C 88.527344 122.234375 90.78125 122.683594 92.957031 123.128906 C 93.980469 123.335938 95.035156 123.546875 96.097656 123.6875 C 96.457031 123.738281 96.835938 123.808594 97.230469 123.890625 C 98.253906 124.09375 99.414062 124.332031 100.132812 123.984375 C 100.613281 123.753906 100.699219 123.519531 100.871094 123.050781 C 101.003906 122.671875 101.175781 122.210938 101.589844 121.773438 C 102.976562 120.3125 104.796875 120.476562 106.394531 120.628906 C 107.605469 120.738281 108.746094 120.847656 109.601562 120.289062 C 110.136719 119.933594 110.320312 119.257812 110.527344 118.476562 C 110.628906 118.089844 110.734375 117.691406 110.890625 117.3125 C 111.179688 116.632812 111.574219 116.023438 111.957031 115.433594 C 112.421875 114.726562 112.851562 114.0625 113.039062 113.359375 C 113.164062 112.890625 113.164062 112.347656 113.167969 111.777344 C 113.167969 111 113.175781 110.1875 113.472656 109.40625 C 113.769531 108.625 114.277344 108.046875 114.769531 107.496094 C 115.183594 107.019531 115.578125 106.574219 115.773438 106.070312 C 116.398438 104.421875 115.425781 103.265625 113.277344 101.59375 C 112.023438 100.613281 110.078125 100.515625 108.183594 100.417969 C 107.242188 100.371094 106.269531 100.324219 105.390625 100.160156 C 102.5 99.617188 101.441406 98.996094 99.304688 97.128906 C 99.148438 96.996094 98.964844 96.824219 98.757812 96.628906 C 97.882812 95.816406 96.261719 94.300781 95.203125 94.375 C 95.035156 94.386719 94.808594 94.441406 94.554688 94.75 C 94.195312 95.195312 94.304688 96.117188 94.40625 97.019531 C 94.527344 98.046875 94.652344 99.105469 94.167969 99.953125 C 93.828125 100.542969 93.378906 100.886719 92.832031 100.984375 C 91.800781 101.167969 90.871094 100.363281 90.042969 99.660156 C 89.8125 99.457031 89.59375 99.269531 89.394531 99.125 C 87.519531 97.742188 86.65625 97.835938 84.230469 98.933594 C 83.878906 99.09375 83.449219 99.257812 82.996094 99.429688 C 82.035156 99.792969 80.582031 100.339844 80.199219 100.859375 C 80.046875 101.066406 80.050781 101.574219 80.0625 102.03125 C 80.074219 102.773438 80.09375 103.703125 79.449219 104.34375 C 78.523438 105.269531 77.199219 105.054688 76.023438 104.867188 C 75.488281 104.773438 75.050781 104.714844 74.703125 104.714844 Z M 66.421875 120.453125 Z M 66.421875 120.453125 " fill-opacity="1" fill-rule="nonzero"/><path fill="#000000" d="M 103.445312 129.449219 C 103.121094 129.449219 102.828125 129.253906 102.707031 128.949219 C 102.214844 127.707031 102.410156 126.539062 103.253906 125.664062 C 104.625 124.246094 107.265625 124.011719 108.925781 124.605469 C 109.226562 124.714844 109.433594 124.988281 109.449219 125.304688 C 109.546875 127.007812 108.214844 128.601562 106.472656 128.847656 C 106.363281 128.859375 106.261719 128.851562 106.164062 128.828125 C 105.269531 129.125 104.285156 129.398438 103.488281 129.449219 C 103.472656 129.449219 103.460938 129.449219 103.445312 129.449219 Z M 107.035156 125.882812 C 106 125.882812 104.933594 126.207031 104.394531 126.765625 C 104.113281 127.058594 103.992188 127.386719 104.027344 127.777344 C 104.890625 127.605469 105.921875 127.242188 106.308594 127.101562 C 106.480469 127.039062 106.65625 127.039062 106.820312 127.09375 C 107.289062 126.855469 107.65625 126.429688 107.800781 125.945312 C 107.558594 125.902344 107.296875 125.882812 107.035156 125.882812 Z M 107.035156 125.882812 " fill-opacity="1" fill-rule="nonzero"/><path fill="#000000" d="M 126.0625 118.414062 C 125.648438 118.414062 125.253906 118.304688 124.894531 118.089844 C 124.621094 117.925781 124.46875 117.617188 124.511719 117.300781 C 124.632812 116.417969 125.207031 115.621094 125.757812 114.855469 C 126.148438 114.320312 126.550781 113.761719 126.707031 113.273438 C 126.890625 112.726562 126.832031 112.058594 126.777344 111.351562 C 126.695312 110.394531 126.605469 109.3125 127.140625 108.351562 C 127.519531 107.675781 128.054688 107.332031 128.492188 107.054688 C 129.015625 106.722656 129.234375 106.570312 129.3125 106.066406 C 129.347656 105.847656 129.226562 105.546875 129.082031 105.207031 C 128.800781 104.539062 128.382812 103.523438 129.171875 102.414062 C 130.25 100.90625 132.488281 101.027344 133.949219 102.007812 C 135.714844 103.195312 135.519531 104.324219 134.996094 106.046875 C 134.460938 107.792969 130.546875 116.863281 127.042969 118.21875 C 126.714844 118.347656 126.386719 118.414062 126.0625 118.414062 Z M 131.550781 102.859375 C 131.113281 102.859375 130.707031 102.992188 130.464844 103.339844 C 130.203125 103.703125 130.269531 103.949219 130.542969 104.605469 C 130.738281 105.074219 130.972656 105.65625 130.871094 106.320312 C 130.675781 107.542969 129.902344 108.035156 129.335938 108.394531 C 128.984375 108.621094 128.703125 108.800781 128.523438 109.125 C 128.222656 109.667969 128.285156 110.421875 128.351562 111.21875 C 128.417969 112.015625 128.496094 112.914062 128.210938 113.765625 C 127.972656 114.484375 127.5 115.140625 127.042969 115.78125 C 126.800781 116.113281 126.554688 116.453125 126.375 116.769531 C 126.402344 116.757812 126.433594 116.753906 126.464844 116.742188 C 129.0625 115.730469 132.777344 107.890625 133.476562 105.585938 C 133.949219 104.035156 133.925781 103.90625 133.0625 103.320312 C 132.671875 103.058594 132.089844 102.859375 131.550781 102.859375 Z M 131.550781 102.859375 " fill-opacity="1" fill-rule="nonzero"/></g></g></g></svg>